<?xml version="1.0" encoding="utf-8"?>
<!-- Generator: Adobe Illustrator 16.0.0, SVG Export Plug-In . SVG Version: 6.00 Build 0)  -->
<!DOCTYPE svg PUBLIC "-//W3C//DTD SVG 1.1//EN" "http://www.w3.org/Graphics/SVG/1.1/DTD/svg11.dtd">
<svg version="1.1" id="Layer_1" xmlns="http://www.w3.org/2000/svg" xmlns:xlink="http://www.w3.org/1999/xlink" x="0px" y="0px"
	 width="20px" height="20px" viewBox="0 0 20 20" enable-background="new 0 0 20 20" xml:space="preserve">
<path display="none" fill="none" stroke="#D2D8D8" stroke-width="2" stroke-linecap="round" stroke-linejoin="round" stroke-miterlimit="10" d="
	M16,18H4c-1.1,0-2-0.9-2-2V4c0-1.1,0.9-2,2-2h12c1.1,0,2,0.9,2,2v12C18,17.1,17.1,18,16,18z"/>
<polyline display="none" fill="none" stroke="#D2D8D8" stroke-linecap="round" stroke-linejoin="round" stroke-miterlimit="10" points="
	2,6 10,10 18,6 "/>
<path display="none" fill="#D2D8D8" d="M10,19.5c-0.875,0-1.716-0.115-2.528-0.344c-0.809-0.225-1.567-0.547-2.27-0.959
	s-1.342-0.904-1.918-1.48c-0.577-0.578-1.072-1.215-1.481-1.92c-0.413-0.705-0.732-1.461-0.961-2.27C0.615,11.717,0.5,10.875,0.5,10
	c0-0.875,0.115-1.716,0.342-2.528C1.07,6.663,1.39,5.904,1.803,5.202C2.212,4.5,2.707,3.86,3.284,3.283S4.5,2.211,5.202,1.802
	c0.702-0.413,1.461-0.732,2.27-0.961C8.284,0.615,9.125,0.5,10,0.5c1.304,0,2.537,0.25,3.697,0.75c1.158,0.5,2.164,1.178,3.02,2.034
	s1.532,1.861,2.032,3.02C19.25,7.462,19.5,8.696,19.5,10c0,0.875-0.115,1.717-0.342,2.528c-0.229,0.809-0.548,1.564-0.961,2.27
	c-0.41,0.705-0.904,1.342-1.48,1.92c-0.577,0.576-1.216,1.068-1.92,1.48c-0.701,0.412-1.46,0.734-2.269,0.959
	C11.717,19.385,10.875,19.5,10,19.5z M14.578,6.086H5.572c-0.087,0-0.164,0.029-0.227,0.086C5.282,6.228,5.25,6.307,5.25,6.408
	v1.007c0,0.05,0.019,0.075,0.058,0.075l4.73,2.7l0.039,0.019c0.024,0,0.043-0.007,0.058-0.019l4.578-2.7
	c0.024-0.01,0.044-0.019,0.058-0.019c0.013,0,0.031-0.005,0.057-0.019c0.049,0,0.077-0.025,0.077-0.074v-0.97
	c0-0.101-0.032-0.18-0.096-0.236C14.744,6.115,14.668,6.086,14.578,6.086z M8.12,10.134c0.011-0.014,0.019-0.033,0.019-0.058
	c0-0.039-0.014-0.058-0.039-0.058L5.384,8.461c-0.039-0.014-0.072-0.014-0.096,0c-0.024,0-0.038,0.019-0.038,0.057v4.087
	c0,0.037,0.019,0.059,0.058,0.076h0.038c0.024,0,0.039-0.01,0.039-0.02L8.12,10.134z M11.424,10.436
	c-0.011-0.038-0.043-0.043-0.094-0.019l-1.046,0.608c-0.126,0.076-0.26,0.076-0.399,0l-0.91-0.512c-0.038-0.027-0.071-0.027-0.095,0
	L5.403,13.74c-0.014,0.018-0.02,0.039-0.02,0.078c0,0.014,0.011,0.031,0.038,0.057c0.074,0.027,0.126,0.039,0.15,0.039h8.912
	c0.025,0,0.05-0.012,0.075-0.039c0-0.049-0.006-0.08-0.019-0.096L11.424,10.436z M14.846,8.384H14.77l-2.585,1.539
	c-0.024,0-0.037,0.019-0.037,0.058c-0.013,0.014-0.007,0.033,0.019,0.057l2.584,2.792c0.025,0.025,0.044,0.037,0.058,0.037h0.038
	c0.039-0.037,0.058-0.061,0.058-0.074V8.461C14.903,8.436,14.885,8.409,14.846,8.384z"/>
<path display="none" fill="#D2D8D8" d="M5.104,6.815V5.104c0-2.699,2.197-4.896,4.896-4.896c2.699,0,4.896,2.197,4.896,4.896v1.712
	c-0.785-0.359-1.605-0.619-2.449-0.794V5.104c0-1.351-1.096-2.448-2.447-2.448c-1.353,0-2.448,1.097-2.448,2.448v0.918
	C6.709,6.196,5.89,6.457,5.104,6.815z M16.119,10.937c0,4.271-2.605,7.83-6.119,8.855c-3.513-1.025-6.12-4.584-6.12-8.855
	c0-1.076,0.166-2.104,0.47-3.06c3.484-2.065,7.816-2.065,11.3,0C15.953,8.833,16.119,9.861,16.119,10.937z M10.768,12.155
	c0.271-0.225,0.457-0.553,0.457-0.932C11.225,10.547,10.676,10,10,10c-0.677,0-1.225,0.547-1.225,1.224
	c0,0.379,0.184,0.707,0.457,0.932l-0.457,2.74h2.449L10.768,12.155z"/>
<path display="none" fill="#D2D8D8" d="M16.137,11.35c0-0.178-0.069-0.305-0.209-0.381l-2.07-0.988
	c0.24-0.152,0.434-0.367,0.579-0.646s0.219-0.595,0.219-0.95c0-0.494-0.149-0.918-0.447-1.273c-0.297-0.354-0.661-0.532-1.092-0.532
	c-0.152,0-0.295,0.025-0.428,0.076c-0.133,0.051-0.257,0.114-0.37,0.19c0.139,0.38,0.209,0.766,0.209,1.159
	c0,0.621-0.165,1.185-0.494,1.691c0.063,0.063,0.123,0.121,0.181,0.171c0.057,0.05,0.117,0.095,0.18,0.133l1.35,0.627
	c0.189,0.102,0.342,0.244,0.456,0.428c0.113,0.184,0.171,0.389,0.171,0.617v1.748h1.425c0.102,0,0.184-0.041,0.247-0.123
	s0.095-0.181,0.095-0.295V11.35L16.137,11.35z M13.724,11.672c0-0.229-0.088-0.38-0.266-0.456l-1.805-0.874l-0.761-0.361
	c0.165-0.101,0.314-0.231,0.447-0.389c0.133-0.159,0.243-0.339,0.332-0.542c0.063-0.152,0.117-0.317,0.161-0.494
	C11.878,8.379,11.9,8.195,11.9,8.005c0-0.101-0.007-0.199-0.02-0.294c-0.013-0.095-0.031-0.193-0.057-0.294
	c-0.114-0.481-0.339-0.874-0.675-1.178c-0.336-0.304-0.725-0.456-1.168-0.456s-0.83,0.148-1.159,0.446s-0.551,0.674-0.665,1.13
	C8.094,7.587,8.062,7.802,8.062,8.005c0,0.38,0.082,0.748,0.246,1.102c0.19,0.38,0.45,0.678,0.779,0.893l-0.722,0.342l-1.862,0.855
	c-0.189,0.088-0.285,0.246-0.285,0.475v1.748v0.304c0,0.14,0.041,0.257,0.124,0.352c0.082,0.096,0.187,0.143,0.313,0.143h6.649
	c0.114,0,0.213-0.047,0.295-0.143c0.082-0.095,0.123-0.212,0.123-0.352V13.42V11.672L13.724,11.672z M5.592,11.672
	c0-0.229,0.058-0.434,0.171-0.617c0.114-0.184,0.267-0.326,0.456-0.428l1.406-0.646c0.127-0.076,0.228-0.165,0.304-0.266
	c-0.164-0.241-0.291-0.506-0.38-0.798S7.416,8.322,7.416,8.005c0-0.215,0.022-0.421,0.066-0.618c0.044-0.196,0.099-0.383,0.161-0.56
	C7.416,6.662,7.163,6.58,6.884,6.58c-0.431,0-0.795,0.177-1.093,0.532C5.494,7.467,5.345,7.891,5.345,8.385
	c0,0.355,0.076,0.675,0.229,0.959C5.725,9.629,5.928,9.848,6.181,10l-2.109,0.969c-0.139,0.063-0.209,0.19-0.209,0.381v1.652
	c0,0.113,0.032,0.213,0.095,0.295s0.146,0.123,0.247,0.123h1.387V11.672L5.592,11.672z M10,0.5c1.305,0,2.536,0.25,3.695,0.75
	s2.166,1.178,3.021,2.033c0.854,0.855,1.532,1.862,2.032,3.021C19.25,7.463,19.5,8.695,19.5,10c0,0.874-0.114,1.717-0.342,2.527
	c-0.229,0.811-0.548,1.567-0.96,2.271c-0.411,0.703-0.905,1.343-1.481,1.919s-1.216,1.07-1.919,1.481
	c-0.703,0.412-1.46,0.731-2.271,0.96C11.717,19.386,10.874,19.5,10,19.5s-1.717-0.114-2.527-0.342
	c-0.811-0.229-1.567-0.548-2.271-0.96C4.5,17.787,3.86,17.293,3.284,16.717c-0.577-0.576-1.07-1.216-1.482-1.919
	c-0.412-0.703-0.731-1.46-0.959-2.271S0.5,10.874,0.5,10s0.114-1.716,0.342-2.527C1.07,6.662,1.39,5.905,1.801,5.203
	C2.213,4.5,2.707,3.86,3.284,3.284C3.86,2.707,4.5,2.213,5.202,1.801C5.905,1.39,6.662,1.07,7.473,0.842S9.126,0.5,10,0.5z"/>
<g>
	<path fill="#D2D8D8" d="M8.782,10.705c2.807,0,5.083-2.276,5.083-5.08c0-2.808-2.275-5.085-5.083-5.085
		c-2.809,0-5.081,2.278-5.081,5.085C3.701,8.429,5.972,10.705,8.782,10.705z"/>
	<path fill="#D2D8D8" d="M15.204,12.1c-0.268-0.573-0.605-1.151-1.037-1.703c-0.232-0.297-0.656-0.62-1.064-0.843
		c-1.064,1.191-2.604,1.944-4.321,1.944c-1.716,0-3.255-0.753-4.316-1.941c-0.401,0.227-0.813,0.552-1.038,0.846
		c-0.73,0.953-1.854,2.797-2.034,5.28c-0.038,0.524,0.212,1.326,0.65,1.632c0.832,0.582,2.625,1.326,6.361,1.326
		c1.293,0,2.383-0.08,3.304-0.203c-0.371-0.627-0.59-1.356-0.59-2.137C11.118,14.022,12.94,12.165,15.204,12.1z"/>
	<path fill="#D2D8D8" d="M15.204,12.896c-1.879,0-3.404,1.524-3.404,3.405c0,1.88,1.525,3.404,3.404,3.404
		c1.883,0,3.406-1.524,3.406-3.404C18.61,14.42,17.087,12.896,15.204,12.896z M16.886,16.927h-1.312v1.313
		c0,0.218-0.178,0.395-0.395,0.395c-0.219,0-0.395-0.177-0.395-0.395v-1.313h-1.312c-0.219,0-0.395-0.176-0.395-0.394
		c0-0.217,0.176-0.395,0.395-0.395h1.312v-1.313c0-0.218,0.176-0.393,0.395-0.392c0.217,0,0.395,0.174,0.395,0.392v1.313h1.312
		c0.217,0,0.395,0.178,0.395,0.395C17.28,16.751,17.104,16.927,16.886,16.927z"/>
</g>
</svg>
